<?xml version="1.0" encoding="utf-8"?>
<svg version="1.2" baseProfile="tiny" xmlns="http://www.w3.org/2000/svg" xmlns:xlink="http://www.w3.org/1999/xlink" x="0px" y="0px"
	width="23.999px" height="14.199px" viewBox="-6.409 3 23.999 14.199" xml:space="preserve">
<g id="schematic">
	<g id="connector0pin">
		<path fill="#787878" d="M-6.409,12.708c0-0.192,0.156-0.35,0.35-0.35h7.201c0.193,0,0.35,0.156,0.35,0.35
			c0,0.194-0.156,0.351-0.35,0.351H-6.06C-6.253,13.058-6.409,12.901-6.409,12.708z"/>
	</g>
	<g id="connector0terminal">
		<rect x="-6.06" y="12.708" fill="none" width="0.001" height="0"/>
	</g>
	<g id="connector1pin">
		<path fill="#787878" d="M9.691,12.707c0-0.191,0.156-0.349,0.35-0.349h7.199c0.193,0,0.35,0.156,0.35,0.349
			c0,0.195-0.156,0.352-0.35,0.352H10.04C9.847,13.057,9.691,12.9,9.691,12.707z"/>
	</g>
	<g id="connector1terminal">
		<polygon fill="none" points="17.24,12.707 17.24,12.709 17.24,12.709"/>
	</g>
	<path id="symbol" d="M6.436,11.29h0.711v2.834H6.436V11.29z M11.967,13.062h-1.854c-0.184,2.309-2.1,4.138-4.456,4.138
		c-2.355,0-4.271-1.829-4.456-4.138H-0.65v-0.709h1.852c0.185-2.309,2.101-4.137,4.456-4.137c2.356,0,4.272,1.828,4.456,4.137h1.854
		V13.062z M9.462,13.062H7.148v-0.709h2.314c-0.182-1.95-1.808-3.486-3.805-3.486c-1.997,0-3.623,1.536-3.805,3.486h2.317v-2.056
		h0.709v4.819H4.169v-2.055H1.852c0.182,1.95,1.809,3.487,3.805,3.487C7.655,16.549,9.281,15.012,9.462,13.062z"/>
	<path id="arrows" d="M14.171,5.384l-2.16,2.158l0.559,0.559l-2.518,1.082l1.08-2.521l0.562,0.562l2.159-2.159
		c0.088-0.088,0.229-0.088,0.318,0C14.259,5.154,14.259,5.296,14.171,5.384z M9.652,5.543l2.158-2.159
		c0.088-0.088,0.088-0.23,0-0.318s-0.23-0.088-0.318,0L9.333,5.225L8.771,4.665l-1.08,2.521l2.521-1.083L9.652,5.543z"/>
	<polygon id="positive" points="0.724,15.732 -0.126,15.732 -0.126,14.882 -0.693,14.882 -0.693,15.732 -1.544,15.732 -1.544,16.299 
		-0.693,16.299 -0.693,17.149 -0.126,17.149 -0.126,16.299 0.724,16.299"/>
	<rect id="negative" x="10.456" y="15.732" width="2.269" height="0.566"/>
</g>
</svg>
